<?xml version="1.0" standalone="no"?>
<!DOCTYPE svg PUBLIC "-//W3C//DTD SVG 20010904//EN"
 "http://www.w3.org/TR/2001/REC-SVG-20010904/DTD/svg10.dtd">
<svg version="1.0" xmlns="http://www.w3.org/2000/svg"
 width="500.000000pt" height="500.000000pt" viewBox="0 0 500.000000 500.000000"
 preserveAspectRatio="xMidYMid meet">
<metadata>
Created by potrace 1.16, written by Peter Selinger 2001-2019
</metadata>
<g transform="translate(0.000000,500.000000) scale(0.100000,-0.100000)"
fill="#000000" stroke="none">
<path d="M3725 4954 c-30 -15 -30 -15 -3 -9 18 3 41 -2 65 -15 21 -11 45 -20
53 -19 10 0 9 3 -5 9 -17 7 -17 9 -2 9 16 1 35 -14 67 -55 8 -10 28 -53 44
-94 16 -41 32 -77 35 -80 4 -3 17 -36 30 -75 13 -38 37 -97 52 -130 16 -33 31
-74 33 -90 5 -36 36 -105 48 -105 5 0 8 -6 7 -12 -3 -21 23 -108 32 -108 5 0
5 -7 2 -17 -4 -10 -2 -14 5 -9 14 9 20 -3 26 -51 6 -43 12 -63 44 -133 11 -25
28 -69 37 -97 9 -29 21 -55 26 -58 5 -4 9 -14 9 -24 0 -10 17 -51 38 -92 30
-59 47 -80 87 -107 28 -18 56 -30 63 -27 7 3 10 0 7 -5 -5 -8 18 -15 28 -8 1
1 12 -4 24 -10 17 -10 30 -9 60 2 21 7 93 24 161 36 67 12 122 27 122 32 0 5
-9 6 -21 3 -12 -4 -44 -11 -73 -15 -197 -32 -206 -33 -245 -22 -41 13 -119 65
-126 85 -14 43 -381 1026 -407 1092 -59 145 -118 196 -243 209 -33 3 -60 0
-80 -10z"/>
<path d="M3604 4702 c-16 -10 -34 -48 -34 -70 0 -28 45 -72 73 -72 13 0 36 9
49 20 14 10 28 17 31 13 4 -3 2 9 -3 28 -6 19 -10 35 -10 36 0 1 -11 14 -25
28 -25 24 -59 32 -81 17z"/>
<path d="M528 4593 c10 -4 9 -9 -4 -24 -9 -10 -21 -16 -25 -13 -5 3 -6 -1 -3
-9 4 -12 -20 -42 -35 -42 -3 0 -5 -4 -3 -8 1 -4 -5 -18 -13 -30 -10 -14 -16
-16 -14 -7 1 8 1 39 0 68 -1 51 -2 52 -31 52 l-30 0 0 -155 0 -155 30 0 c29 0
30 2 30 43 0 23 7 50 14 60 13 17 16 16 39 -15 13 -18 32 -45 42 -60 17 -28
18 -28 127 -28 l109 0 -3 28 c-2 19 -9 28 -25 30 -22 3 -23 8 -23 98 0 87 1
94 20 94 16 0 20 7 20 30 l0 30 -69 0 c-73 0 -87 -9 -69 -43 5 -10 16 -16 24
-13 11 4 14 -12 14 -94 0 -92 -2 -100 -19 -100 -12 0 -21 -8 -23 -21 -3 -18
-8 -15 -36 25 -18 25 -30 51 -26 58 4 7 3 8 -4 4 -6 -4 -19 5 -28 19 -15 23
-15 27 0 50 9 14 22 23 28 19 6 -4 8 -3 4 4 -3 6 7 26 24 45 36 42 37 47 6 47
-14 0 -28 5 -31 10 -3 6 -12 10 -18 9 -8 0 -8 -2 1 -6z"/>
<path d="M760 4550 c0 -28 3 -30 35 -30 l35 0 0 -125 0 -125 35 0 35 0 0 125
0 125 33 0 c41 0 45 4 39 35 -4 25 -6 25 -108 25 l-104 0 0 -30z"/>
<path d="M3846 3575 c-11 -8 -14 -15 -8 -15 7 0 12 -5 12 -11 0 -5 -5 -7 -11
-3 -9 5 -10 -1 -5 -20 4 -18 3 -25 -4 -21 -6 4 -10 -8 -10 -31 0 -32 -2 -35
-15 -24 -14 11 -15 10 -7 -11 9 -27 5 -59 -8 -59 -5 0 -7 -7 -4 -15 8 -20 1
-19 -38 5 -35 21 -78 27 -78 10 0 -15 24 -64 35 -72 6 -5 5 -8 -2 -8 -7 0 -13
-7 -13 -17 0 -20 52 -103 82 -129 l21 -19 -7 35 c-3 19 -20 55 -37 80 l-32 44
62 -54 c35 -30 77 -65 94 -76 18 -12 56 -44 85 -71 29 -27 55 -47 57 -44 3 2
5 -3 5 -12 0 -10 8 -17 20 -17 10 0 31 -12 46 -27 18 -18 29 -23 32 -15 6 20
22 13 23 -10 0 -17 2 -19 7 -8 5 10 21 15 45 15 31 0 37 3 33 18 -2 10 1 17 9
17 8 0 16 8 18 18 4 13 5 12 6 -5 0 -12 5 -24 9 -27 4 -2 6 11 4 31 -3 23 -1
33 6 29 6 -3 13 0 15 6 4 8 9 3 13 -11 7 -23 8 -24 15 -5 7 17 8 16 8 -6 1
-14 6 -32 12 -40 8 -11 9 -5 4 24 -5 27 -2 41 7 47 10 7 10 9 1 9 -7 0 -13 10
-14 23 -1 21 -1 21 -9 -3 -4 -14 -8 -19 -9 -11 -1 11 -4 11 -18 0 -11 -10 -14
-10 -9 -1 4 6 2 12 -3 12 -6 0 -10 3 -10 8 4 22 -3 30 -21 27 -18 -3 -25 6
-21 28 1 5 -3 6 -8 2 -7 -4 -6 -15 1 -31 7 -15 14 -20 18 -13 5 7 10 5 14 -7
3 -9 4 -19 1 -22 -3 -3 -5 1 -5 8 0 9 -5 7 -15 -6 -9 -11 -13 -13 -10 -4 3 9
-1 24 -10 35 -12 16 -16 17 -23 7 -7 -11 -10 -10 -16 3 -7 19 1 38 14 30 5 -3
12 0 16 6 11 18 -18 30 -31 12 -10 -13 -15 -13 -33 -2 -11 7 -23 22 -26 34 -5
17 -8 18 -16 5 -8 -12 -10 -11 -10 8 0 14 4 21 11 16 8 -4 8 0 0 15 -14 25
-23 28 -14 4 4 -11 3 -14 -6 -9 -7 4 -23 9 -37 11 -28 3 -26 1 -42 35 -7 14
-10 17 -8 8 6 -22 -3 -48 -16 -48 -5 0 -6 6 -1 12 14 23 4 146 -17 209 -21 63
-60 109 -90 109 -8 0 -24 -7 -34 -15z"/>
<path d="M3432 3333 c3 -32 13 -74 22 -93 9 -19 14 -27 11 -16 -3 10 0 25 6
32 6 8 8 26 5 41 -5 21 -4 24 4 13 5 -8 10 -21 10 -28 0 -6 24 -63 54 -125 30
-61 59 -128 64 -147 l8 -34 13 47 c27 95 -3 237 -63 302 -31 33 -87 65 -115
65 -23 0 -24 -2 -19 -57z"/>
<path d="M3479 3253 c-7 -63 3 -113 21 -113 15 0 31 -52 20 -65 -6 -7 -8 -20
-4 -29 3 -9 2 -16 -3 -16 -5 0 -15 -29 -22 -65 -7 -41 -20 -74 -32 -86 -17
-17 -19 -23 -8 -30 12 -7 12 -9 0 -9 -8 0 -11 -7 -9 -18 3 -10 -2 -24 -10 -32
-14 -13 -15 -12 -10 1 4 10 1 16 -8 16 -19 0 -18 -5 9 -37 l24 -28 37 142 c21
77 41 155 45 171 7 25 10 27 16 13 4 -10 12 -15 18 -11 6 3 7 1 3 -6 -4 -6
-11 -9 -16 -6 -14 8 -37 -79 -44 -168 -2 -15 -6 -30 -9 -34 -4 -3 -2 -13 5
-20 9 -11 9 -16 -2 -23 -8 -5 -12 -11 -9 -14 2 -3 29 17 58 44 l54 50 -6 71
c-4 42 -12 76 -19 80 -7 4 -9 11 -6 15 4 3 0 25 -9 48 -16 39 -36 60 -58 61
-5 0 -9 9 -7 19 2 10 -1 15 -6 12 -6 -4 -8 9 -5 34 3 22 3 40 -1 40 -3 0 -6
-3 -7 -7z"/>
<path d="M4717 3029 c8 -16 12 -37 9 -45 -3 -9 -1 -24 5 -35 6 -11 8 -25 6
-32 -2 -7 -11 4 -20 23 -8 19 -16 28 -16 20 -1 -8 8 -28 18 -43 l19 -29 11 29
11 28 -6 -32 c-3 -19 0 -34 7 -39 9 -5 10 -2 6 9 -10 27 7 19 20 -9 10 -22 10
-24 -8 -19 -28 9 -43 -3 -27 -23 11 -15 11 -15 -2 -6 -9 8 -36 10 -70 6 -30
-3 -65 -5 -77 -6 -11 -1 -19 -4 -16 -9 5 -9 -46 -29 -57 -22 -5 3 -12 0 -16
-6 -5 -8 -2 -10 7 -5 8 4 3 -1 -11 -12 -13 -11 -28 -18 -32 -16 -4 3 -5 -3 -1
-12 4 -11 3 -15 -5 -10 -14 8 -42 -32 -35 -50 3 -8 13 -14 22 -14 19 0 88 -23
97 -33 12 -12 52 -8 57 6 6 17 56 20 75 5 13 -10 14 -10 8 0 -4 6 -3 12 1 12
10 0 35 -61 28 -68 -2 -3 -25 1 -51 7 -36 9 -49 9 -61 0 -8 -7 -37 -13 -64
-13 -27 -1 -49 -5 -49 -10 0 -4 13 -25 28 -45 35 -45 104 -190 96 -202 -3 -5
-12 -9 -20 -9 -8 0 -14 -4 -14 -10 0 -5 7 -7 15 -4 8 4 15 1 15 -5 0 -6 10
-11 23 -11 13 0 17 3 10 8 -8 5 -8 12 3 26 7 11 17 17 20 13 4 -4 2 -13 -4
-20 -7 -8 -9 -17 -6 -20 4 -4 -4 -11 -18 -16 -14 -5 -28 -17 -32 -26 -9 -25
-7 -32 5 -12 5 9 18 17 27 17 10 0 23 5 30 12 9 9 12 9 12 -1 0 -8 9 -5 26 8
31 24 46 27 38 7 -3 -8 2 -26 12 -40 14 -22 14 -25 1 -20 -8 3 -18 16 -21 30
-4 13 -11 24 -17 24 -6 0 -6 -6 0 -18 18 -34 -3 -79 -44 -97 -18 -7 -18 -9 -2
-12 9 -3 17 -11 17 -19 0 -8 9 -24 20 -36 22 -24 17 -42 -10 -35 -9 2 -25 0
-34 -5 -10 -6 -16 -5 -16 1 0 5 -12 9 -26 8 -16 -1 -29 4 -32 13 -5 13 -3 13
11 1 19 -15 23 -1 5 17 -15 15 -42 16 -32 0 5 -7 3 -8 -5 -4 -9 6 -8 12 4 26
16 17 15 19 -5 30 -29 15 -20 23 13 11 37 -14 67 -3 67 25 0 13 3 24 8 24 4 0
8 11 8 24 2 22 -1 23 -16 13 -10 -6 -16 -15 -14 -19 3 -4 0 -9 -5 -9 -21 -3
-26 -4 -38 -12 -9 -5 -11 -3 -7 6 3 8 -1 14 -10 14 -8 0 -14 -5 -13 -11 3 -14
39 -36 49 -30 5 3 8 0 8 -6 0 -7 -7 -9 -16 -6 -9 3 -23 6 -33 6 -11 0 -17 8
-18 23 -3 45 -7 66 -14 61 -4 -2 -13 9 -20 25 -7 16 -16 28 -20 25 -13 -8 -22
17 -10 29 17 17 13 71 -8 93 -39 41 -71 63 -76 54 -4 -6 -12 -10 -18 -9 -9 0
-9 2 -1 5 14 6 6 44 -14 63 -11 12 -15 12 -22 1 -6 -9 -10 -7 -14 8 -5 14 -12
19 -23 15 -14 -5 -14 -8 -1 -17 8 -6 21 -25 30 -43 13 -26 14 -33 2 -37 -8 -3
-11 -12 -8 -21 4 -10 13 -14 23 -9 36 14 51 16 51 4 0 -7 -6 -10 -13 -7 -15 6
-59 -27 -49 -37 3 -4 -1 -4 -11 0 -16 6 -21 17 -18 37 0 4 -5 7 -11 7 -10 0
-10 2 -1 8 15 9 6 49 -12 56 -8 3 -15 -6 -19 -25 -7 -37 -22 -38 -29 -1 -4 21
3 36 31 70 78 91 77 89 61 108 -8 10 -9 15 -2 11 13 -8 37 26 26 37 -3 3 -1 6
7 6 10 0 10 3 0 15 -7 9 -19 14 -27 11 -7 -3 -13 0 -13 6 0 17 -11 3 -14 -19
-3 -19 -36 -32 -36 -14 0 6 -9 11 -21 11 -11 0 -17 -5 -14 -10 4 -6 11 -8 16
-5 5 4 9 1 9 -4 0 -6 -13 -11 -30 -11 -25 0 -30 4 -30 24 0 13 -12 41 -26 62
-28 43 -124 138 -124 123 0 -15 -61 34 -70 56 -8 19 -9 19 -9 -3 -1 -34 -26
-22 -28 14 -1 16 0 24 3 17 3 -7 11 -10 19 -7 7 3 21 -5 30 -18 l17 -23 -7 25
c-9 33 -23 45 -64 59 -61 20 -161 7 -161 -21 0 -5 -4 -7 -9 -4 -9 6 -24 -35
-16 -43 3 -2 5 1 5 7 0 7 5 12 10 12 8 0 8 -6 1 -17 -7 -13 -5 -23 5 -34 13
-15 12 -19 -16 -42 -16 -14 -30 -28 -30 -31 0 -12 44 -5 60 9 15 14 18 14 23
1 4 -10 1 -13 -7 -10 -8 3 -17 1 -21 -5 -3 -6 -3 -11 2 -12 40 -4 111 -28 119
-41 4 -7 0 -7 -12 0 -11 5 -41 14 -69 21 -27 7 -58 14 -67 17 -14 4 -11 -7 15
-51 17 -32 42 -68 54 -81 12 -13 18 -26 13 -29 -4 -2 -13 2 -20 10 -11 13 -14
13 -27 -2 -13 -16 -13 -16 -3 5 14 29 11 32 -19 21 -21 -8 -23 -13 -17 -50 5
-30 3 -39 -5 -33 -9 5 -10 2 -6 -10 4 -10 7 -22 7 -27 0 -5 4 -9 10 -9 5 0 7
8 5 18 -3 9 1 4 8 -12 15 -30 31 -22 21 11 -4 14 -4 15 4 3 5 -8 9 -28 8 -45
-1 -27 -5 -30 -36 -33 -48 -5 -58 -18 -14 -19 19 -1 44 -9 55 -19 17 -16 19
-16 19 -1 0 29 20 18 21 -10 0 -25 1 -26 9 -8 5 11 9 16 10 10 1 -5 11 8 21
30 l20 40 -6 -44 c-5 -42 -5 -43 19 -37 15 4 45 -2 75 -14 28 -11 51 -16 51
-12 0 4 4 1 9 -7 7 -10 18 -11 55 -3 36 8 44 7 36 -3 -15 -18 -1 -25 27 -14
31 11 36 11 28 0 -3 -5 0 -13 6 -17 7 -4 9 -3 6 3 -4 6 2 13 12 16 14 3 21 -2
25 -17 3 -11 1 -23 -4 -24 -6 -2 -8 -7 -6 -11 8 -12 -20 -106 -30 -104 -14 2
-16 -54 -4 -77 6 -11 7 -20 2 -20 -4 0 -17 -7 -28 -15 -18 -15 -18 -15 6 -10
22 5 25 2 27 -25 2 -20 -1 -28 -9 -24 -7 5 -9 -1 -4 -19 6 -25 -7 -46 -18 -28
-4 5 -1 11 6 13 9 3 9 6 1 11 -6 4 -18 0 -27 -9 -9 -8 -20 -12 -26 -9 -5 3
-10 -1 -10 -10 0 -10 5 -13 12 -9 7 4 8 3 4 -4 -10 -17 -32 -4 -32 18 0 11 4
20 8 20 4 0 5 8 1 18 -5 14 -3 13 10 -3 15 -19 17 -19 34 -2 14 14 14 17 3 18
-8 1 -4 5 10 9 24 8 24 8 2 9 -12 1 -25 -6 -28 -14 -6 -14 -8 -13 -19 2 -11
15 -9 21 12 41 14 13 23 25 20 28 -3 3 -15 -4 -27 -16 -12 -12 -27 -19 -35
-17 -7 3 -25 -7 -39 -22 -18 -19 -22 -28 -12 -28 8 0 14 5 13 11 -3 13 32 21
44 9 4 -4 4 -15 -1 -23 -9 -13 -11 -13 -20 0 -8 12 -10 11 -10 -7 0 -13 5 -23
10 -23 6 0 5 -9 -3 -22 -8 -13 -13 -33 -12 -46 2 -16 -1 -20 -10 -12 -6 5 -16
6 -20 2 -5 -4 -5 -1 -1 6 4 7 12 10 17 7 5 -4 9 -2 9 4 0 5 -6 12 -12 15 -9 3
-8 8 5 16 14 9 16 15 6 26 -15 18 -44 18 -63 -1 -16 -17 -30 -20 -21 -5 14 23
14 49 -1 43 -8 -3 -14 -18 -14 -34 0 -16 -4 -29 -9 -29 -5 0 -8 12 -6 28 2 15
4 27 5 27 8 0 8 120 1 133 -8 13 -9 10 -7 -13 2 -16 -2 -38 -10 -49 -8 -12
-10 -26 -4 -42 6 -15 5 -26 -1 -30 -6 -3 -8 -12 -5 -19 3 -8 0 -15 -6 -17 -8
-3 -8 -10 0 -25 9 -16 8 -24 -3 -33 -8 -7 -15 -9 -15 -4 0 5 -7 1 -14 -9 -12
-16 -14 -16 -20 -2 -3 9 -2 13 4 10 6 -3 10 3 10 14 0 24 -39 39 -51 20 -12
-20 -2 -24 18 -8 17 13 17 13 1 -7 -22 -25 -23 -48 -3 -40 8 3 14 0 12 -7 -1
-7 7 -11 20 -9 13 2 31 -2 40 -8 15 -9 14 -9 -8 -4 -17 3 -30 0 -39 -11 -7 -9
-9 -15 -4 -14 26 5 45 -3 60 -26 17 -26 11 -70 -9 -58 -7 4 -6 0 2 -10 7 -9
11 -24 7 -32 -4 -10 1 -15 14 -15 12 0 17 5 14 14 -3 8 0 17 7 22 8 4 10 3 5
-4 -4 -8 0 -12 10 -12 16 0 16 -1 2 -12 -9 -7 -18 -30 -20 -50 -4 -34 -2 -36
12 -23 9 8 22 15 28 15 18 0 25 20 12 35 -8 10 -9 15 -2 15 6 0 14 9 17 20 4
11 11 18 16 14 6 -4 3 -14 -7 -25 -9 -11 -14 -22 -9 -27 4 -4 10 -1 12 6 8 21
23 13 23 -13 0 -14 4 -25 10 -25 5 0 14 -10 20 -22 10 -21 10 -21 -3 -5 -8 9
-17 17 -20 17 -6 0 -21 -51 -19 -62 1 -5 -3 -8 -8 -8 -6 0 -10 8 -10 18 0 11
-9 27 -20 37 -19 18 -20 17 -20 -3 0 -11 5 -24 11 -27 7 -5 5 -13 -6 -25 -18
-20 -11 -47 13 -54 10 -2 39 -7 67 -11 40 -6 46 -9 31 -17 -14 -8 -15 -12 -6
-18 9 -6 6 -10 -9 -15 -11 -3 -21 -11 -21 -16 0 -5 -10 -14 -22 -19 -19 -7
-20 -9 -4 -9 12 -1 16 -6 12 -16 -9 -26 3 -16 18 14 17 31 70 73 60 46 -4 -8
-1 -15 5 -15 6 0 11 5 11 12 0 9 3 9 11 1 8 -8 8 -16 0 -30 -6 -10 -11 -13
-11 -5 0 7 -4 11 -10 7 -5 -3 -7 -12 -4 -19 3 -8 1 -17 -5 -20 -13 -9 -2 -36
14 -36 8 0 12 -8 10 -20 -2 -11 1 -20 7 -20 5 0 8 -6 5 -13 -4 -10 6 -14 35
-15 45 -2 61 -9 53 -23 -4 -5 -1 -9 4 -9 6 0 11 5 11 11 0 5 5 7 10 4 8 -5 8
-11 0 -20 -7 -8 1 -7 24 4 18 9 31 21 28 26 -3 6 1 4 9 -2 24 -23 31 -14 27
39 -3 48 -1 52 25 61 37 12 64 2 47 -18 -7 -8 -18 -15 -25 -15 -7 0 -19 -8
-26 -17 -13 -16 -12 -17 4 -4 16 12 17 10 17 -29 0 -36 -2 -41 -14 -31 -12 10
-15 8 -18 -11 -2 -17 -9 -22 -26 -21 -12 2 -22 -2 -22 -7 0 -17 30 -11 57 10
27 21 43 25 43 12 0 -4 -16 -16 -35 -26 -19 -11 -35 -23 -35 -28 0 -10 36 9
68 36 30 27 28 5 -3 -24 -14 -13 -25 -20 -25 -16 0 4 -7 0 -16 -9 -16 -16 -55
-12 -62 6 -7 17 -20 9 -15 -9 2 -10 -3 -24 -11 -31 -18 -15 -22 -51 -6 -51 6
0 10 -7 10 -15 0 -8 -5 -15 -11 -15 -6 0 -9 -6 -6 -14 4 -9 -2 -13 -16 -12
-21 2 -37 -10 -37 -27 0 -5 5 -5 10 -2 6 3 10 1 10 -5 0 -17 -31 -24 -41 -9
-5 8 -7 22 -5 32 2 9 0 17 -5 17 -5 0 -9 -6 -10 -12 0 -7 -4 -4 -9 7 -8 18 -9
18 -9 2 -1 -10 15 -35 34 -55 24 -25 35 -32 35 -21 0 11 9 17 25 17 23 0 22
-2 -10 -23 -22 -15 -42 -22 -57 -18 -23 5 -23 5 -3 -10 14 -11 24 -12 33 -5 7
6 15 8 19 4 3 -3 15 1 25 11 10 9 18 12 19 7 0 -5 4 0 9 11 7 17 9 17 9 3 1
-10 7 -18 14 -18 6 0 4 -5 -5 -11 -24 -13 -23 -29 2 -29 21 0 29 -33 10 -45
-6 -4 -7 -12 -4 -18 4 -7 3 -9 -1 -4 -5 4 -10 17 -12 29 -5 30 -29 55 -53 53
-32 -2 -33 -12 -2 -18 16 -3 29 -12 29 -19 3 -39 22 -108 36 -129 10 -13 17
-18 17 -11 0 7 5 10 10 7 6 -3 10 0 10 8 0 7 6 14 14 14 11 0 12 -6 5 -24 -5
-14 -5 -23 1 -23 6 0 10 -16 10 -36 0 -22 4 -33 10 -29 6 4 17 1 25 -5 11 -9
15 -9 15 -1 0 6 -4 11 -10 11 -5 0 -10 5 -10 10 0 7 6 7 19 1 10 -6 21 -8 24
-4 8 8 33 -19 41 -45 4 -12 12 -20 17 -17 5 4 5 14 -1 26 -15 26 4 24 24 -4 9
-12 14 -16 11 -9 -3 6 -1 12 4 12 6 0 11 -6 11 -12 1 -7 7 -26 15 -43 l14 -30
-6 39 c-5 36 -5 38 16 27 11 -7 21 -16 21 -22 0 -6 7 -6 20 1 11 6 20 19 20
29 0 25 11 33 27 20 10 -9 13 -6 14 17 1 19 3 22 6 11 3 -10 11 -16 18 -13 7
2 16 -2 19 -11 4 -8 13 -13 20 -10 8 3 17 -1 20 -9 3 -9 1 -12 -4 -9 -6 3 -10
2 -10 -3 0 -8 22 -22 34 -22 2 0 3 14 3 30 0 17 -4 30 -9 30 -4 0 -8 5 -8 10
0 7 7 7 20 0 11 -6 18 -15 15 -21 -9 -13 9 -11 24 3 11 11 13 9 8 -10 -3 -12
-1 -20 3 -17 5 3 11 -1 13 -7 3 -7 6 2 6 20 1 17 6 32 11 32 6 0 10 9 10 20 0
25 9 25 26 3 25 -33 33 6 32 145 -1 101 -4 137 -15 148 -15 14 -8 39 8 29 5
-4 9 -1 9 5 0 6 -7 13 -15 17 -14 5 -14 7 0 23 22 24 21 542 -1 533 -8 -3 -14
0 -14 6 0 6 7 11 15 11 8 0 15 4 15 8 0 4 -16 6 -35 4 -39 -5 -41 0 -21 41 17
31 13 34 -17 9 -23 -18 -36 -49 -16 -36 7 4 10 1 7 -7 -3 -8 -13 -14 -23 -14
-10 0 -20 -6 -23 -14 -3 -8 0 -11 7 -7 12 8 13 -9 2 -38 -7 -18 -8 -18 -24 5
-9 13 -17 40 -17 61 0 46 28 118 45 118 8 0 15 8 17 17 3 15 5 15 18 2 10 -9
26 -13 45 -9 l30 5 2 92 c2 51 -1 94 -5 97 -5 3 -17 3 -28 0 -22 -6 -29 -39
-12 -50 7 -5 8 -2 3 7 -7 12 -6 12 7 1 9 -7 14 -21 11 -32 -6 -23 -23 -27 -23
-5 0 23 -16 18 -28 -10 -13 -28 -36 -34 -28 -7 17 59 6 128 -22 135 -16 4 -16
5 1 6 18 1 23 16 8 26 -10 6 -33 -28 -29 -42 5 -16 -30 -55 -43 -48 -7 5 -10
4 -6 -3 10 -15 -3 -43 -17 -36 -6 3 -3 -1 7 -9 18 -15 24 -33 8 -23 -5 4 -11
2 -13 -3 -1 -6 -14 -1 -28 10 -14 12 -19 18 -12 14 16 -8 15 5 -3 29 -8 10
-12 23 -9 27 3 5 -4 9 -15 9 -26 0 -26 -7 -4 -34 10 -12 3 -8 -15 8 -35 33
-40 41 -17 32 8 -3 15 -1 15 4 0 5 8 7 18 4 16 -5 16 -5 0 6 -26 16 -22 31 6
26 20 -4 24 0 24 17 -1 12 -6 28 -12 35 -7 10 -6 16 4 22 8 5 10 15 6 26 -6
15 -5 17 5 7 19 -19 40 -16 32 5 -6 14 -4 15 8 5 13 -10 20 -9 37 8 16 14 22
16 22 6 0 -15 53 -28 67 -18 5 3 5 2 1 -3 -9 -12 -68 -16 -68 -5 0 5 -7 9 -15
9 -10 0 -7 -7 10 -26 13 -14 31 -24 41 -22 9 2 19 -3 22 -11 3 -9 0 -11 -9 -6
-11 6 -11 5 -2 -5 13 -14 37 -4 27 12 -4 5 0 21 7 35 10 18 10 29 2 42 -6 10
-14 39 -18 64 -6 38 -4 49 14 68 19 20 19 25 6 45 -13 20 -13 21 5 17 24 -6
25 -30 6 -69 -11 -20 -12 -33 -4 -47 7 -14 7 -17 -1 -13 -6 4 -11 0 -11 -8 0
-9 5 -16 11 -16 5 0 7 -4 4 -10 -3 -5 -2 -10 4 -10 6 0 19 -9 29 -20 18 -20
19 -17 19 129 1 126 -2 151 -14 156 -13 4 -14 3 -3 -10 11 -13 10 -14 -5 -9
-13 5 -16 4 -11 -4 4 -7 1 -12 -6 -12 -9 0 -14 13 -15 38 -1 20 1 28 4 18 4
-15 7 -16 13 -6 7 11 12 11 23 2 13 -11 15 14 16 187 l2 199 -26 28 c-16 18
-23 21 -19 10 6 -16 3 -18 -32 -12 -84 12 -128 10 -118 -6 5 -7 3 -8 -5 -4 -7
5 -10 10 -8 13 3 2 -10 36 -29 74 -19 38 -34 73 -34 78 0 5 -6 11 -14 14 -11
5 -11 0 1 -24z m-654 -144 c20 -14 37 -30 37 -36 0 -6 4 -7 10 -4 6 4 6 -3 0
-21 -6 -15 -8 -29 -5 -32 3 -3 5 1 5 8 0 9 5 7 16 -6 13 -16 15 -16 10 -1 -3
9 -1 17 5 17 7 0 9 -13 4 -36 -4 -22 -3 -34 3 -30 6 3 8 -2 5 -14 -3 -11 -8
-18 -12 -16 -3 2 -12 -3 -20 -12 -13 -13 -12 -14 11 -9 22 6 27 3 33 -21 11
-37 15 -63 16 -93 0 -17 9 -31 22 -38 19 -10 19 -11 2 -6 -16 4 -15 1 6 -15
20 -15 25 -26 21 -50 -5 -38 -15 -38 -41 -1 -15 21 -18 30 -9 33 7 3 3 7 -9
10 -17 5 -21 2 -18 -18 1 -13 -2 -21 -6 -18 -5 3 -9 1 -9 -4 0 -6 -16 -10 -35
-9 -34 1 -34 1 -14 20 18 17 19 21 6 35 -8 10 -20 34 -27 55 -6 20 -16 37 -21
37 -5 0 -9 4 -9 10 0 13 56 41 66 32 5 -4 2 1 -5 11 -7 9 -20 17 -27 17 -8 0
-14 2 -14 4 0 2 -3 13 -6 23 -5 15 -4 15 5 3 9 -13 11 -13 11 3 0 9 -7 17 -15
17 -9 0 -15 7 -13 16 2 11 -5 18 -21 21 -30 4 -41 14 -23 20 8 3 12 26 12 64
0 32 3 59 8 59 4 0 24 -11 45 -25z m497 -952 c17 -15 26 -32 22 -41 -4 -12 0
-14 20 -9 18 5 30 2 39 -11 13 -15 12 -16 -3 -3 -16 12 -18 11 -18 -2 0 -25
22 -32 36 -12 12 17 14 16 25 -9 10 -20 10 -32 0 -52 -6 -15 -10 -29 -7 -31 2
-2 7 5 11 17 5 17 10 19 21 9 19 -15 18 -33 -1 -25 -8 3 -15 2 -15 -3 0 -12
-60 -20 -66 -9 -3 5 -2 8 3 7 26 -4 33 4 32 39 l-1 37 -15 -35 c-16 -34 -16
-34 -22 -11 -4 14 -12 26 -19 27 -7 1 -8 0 -3 -2 6 -3 7 -12 4 -19 -7 -19 -43
-1 -43 21 0 10 -6 14 -15 10 -8 -3 -15 -1 -15 5 0 5 -10 14 -22 19 l-23 9 22
0 c40 2 73 -17 66 -36 -4 -11 -3 -14 3 -8 5 5 13 13 18 16 13 10 -65 46 -89
42 l-20 -3 20 9 c18 7 17 10 -15 30 -46 28 -27 27 27 -1 23 -12 45 -19 49 -16
8 9 -20 38 -38 39 -10 0 -10 2 1 6 11 5 11 7 0 14 -8 5 -10 9 -6 9 5 0 21 -12
37 -27z m-359 -75 c8 -14 7 -24 -3 -36 -11 -15 -11 -15 2 -6 11 9 18 9 27 -1
6 -7 9 -16 5 -19 -3 -4 1 -4 9 -1 9 3 23 -3 33 -14 10 -11 24 -17 32 -14 15 6
34 -34 34 -73 0 -25 9 -28 48 -18 25 7 30 41 7 50 -8 4 -12 11 -9 16 4 7 9 6
13 -1 5 -7 17 -8 38 -2 28 8 56 2 54 -13 -4 -27 3 -27 25 2 14 17 30 32 36 32
7 0 2 -10 -10 -23 -34 -36 -27 -59 42 -128 34 -35 67 -72 72 -81 9 -16 11 -16
22 3 8 12 9 19 4 15 -5 -3 -24 8 -42 24 -30 27 -31 30 -12 30 11 0 24 5 27 10
10 17 37 11 56 -12 11 -11 19 -24 19 -28 0 -4 18 -6 40 -4 22 1 42 -2 45 -7 4
-5 11 -9 16 -9 6 0 8 4 5 9 -7 11 22 23 35 15 5 -3 12 2 15 10 3 9 14 16 23
16 14 -1 14 -2 -3 -15 -10 -7 -15 -18 -11 -24 4 -7 0 -8 -11 -4 -11 4 -15 3
-11 -4 4 -6 1 -13 -5 -16 -10 -3 -10 -7 1 -20 8 -10 9 -17 3 -17 -6 0 -15 7
-20 17 -11 18 -70 26 -89 11 -7 -5 -17 -7 -23 -3 -5 3 -10 1 -10 -5 0 -6 -12
-15 -27 -21 -25 -10 -42 -12 -105 -18 -22 -1 -24 -34 -3 -51 8 -7 12 -16 9
-21 -3 -5 2 -9 11 -9 11 0 15 5 11 16 -3 8 -2 12 4 9 6 -3 10 -14 10 -24 0
-14 -8 -17 -42 -16 -24 1 -53 -2 -66 -7 -15 -5 -21 -4 -17 2 3 6 1 10 -5 10
-6 0 -8 5 -4 11 4 8 9 8 17 0 15 -15 30 -14 20 2 -11 18 -12 37 -2 37 6 0 7 5
4 10 -3 6 1 10 10 10 9 0 15 6 13 13 -3 6 -14 12 -26 12 -11 0 -24 3 -28 8 -4
4 -19 7 -33 8 -14 0 -19 3 -11 6 8 2 22 7 30 10 8 4 18 5 23 5 4 -1 7 2 7 8 0
5 -6 10 -14 10 -15 0 -29 27 -21 40 3 5 -3 8 -13 7 -10 0 -18 -9 -18 -18 0 -9
6 -15 13 -12 7 3 13 0 13 -6 0 -5 -19 -15 -42 -21 -24 -6 -56 -15 -73 -20 -28
-9 -29 -8 -10 6 11 8 31 18 45 21 24 6 40 20 40 36 0 4 -8 3 -17 -3 -10 -5
-40 -19 -68 -30 -27 -11 -62 -27 -76 -35 -14 -8 -29 -12 -33 -8 -3 3 -6 -1 -6
-11 0 -9 5 -14 10 -11 6 3 10 0 10 -8 0 -8 -9 -17 -20 -20 -15 -4 -20 0 -21
16 -2 38 2 51 24 66 11 8 29 23 39 33 19 19 33 24 23 8 -10 -16 1 -12 75 25
54 27 70 32 70 20 0 -17 4 -18 49 -9 17 4 31 11 31 16 0 6 -7 7 -16 4 -8 -3
-12 -2 -9 3 3 5 0 13 -6 16 -5 4 -8 13 -5 21 3 7 1 16 -4 19 -13 8 -40 -6 -40
-22 0 -8 -4 -11 -10 -8 -5 3 -10 1 -10 -4 0 -6 -9 -11 -21 -11 -13 0 -18 4
-13 13 4 6 -1 5 -12 -5 -17 -14 -21 -14 -32 -2 -12 13 -16 12 -33 -7 -10 -12
-19 -27 -20 -33 0 -6 -4 -2 -8 9 -9 21 3 45 23 45 8 0 10 13 8 37 -4 34 -6 36
-13 15 -5 -13 -6 -29 -2 -34 3 -7 1 -8 -6 -4 -6 4 -10 15 -9 24 2 13 -4 17
-27 15 -27 -2 -28 -1 -10 9 11 6 21 12 23 14 2 1 -3 11 -10 23 -15 24 -45 27
-70 7 -20 -15 -24 -46 -6 -46 15 0 0 -15 -15 -15 -7 0 -11 -12 -10 -25 1 -14
-1 -19 -3 -12 -3 6 -10 10 -15 6 -5 -3 -7 5 -5 18 4 27 -12 78 -25 78 -5 0 -8
6 -6 13 1 6 -4 11 -11 9 -10 -2 -10 2 0 18 7 11 18 20 25 20 18 0 27 -20 14
-33 -15 -15 -14 -27 3 -27 13 0 26 20 26 40 0 5 -8 16 -17 26 -20 20 -23 36
-9 46 14 9 35 -1 47 -24z m579 -545 c0 -14 6 -23 15 -23 9 0 12 -6 8 -17 -5
-12 -3 -14 7 -8 10 6 12 1 7 -23 -4 -21 -2 -32 8 -36 8 -3 15 -1 15 4 0 5 6 7
14 4 8 -3 13 -16 11 -30 -1 -13 2 -24 6 -24 5 0 9 -7 9 -15 0 -9 -6 -12 -15
-9 -8 4 -15 12 -15 19 0 7 -14 18 -31 25 -17 7 -38 24 -46 37 -19 28 -29 24
-13 -6 13 -25 7 -27 -14 -5 -12 12 -16 12 -16 2 0 -7 9 -19 20 -26 13 -8 17
-18 13 -29 -4 -12 1 -10 17 7 l23 25 -7 -35 c-10 -53 -24 -60 -49 -25 -35 49
-80 86 -91 75 -13 -13 11 -40 30 -33 8 3 14 0 14 -6 0 -5 14 -25 32 -43 18
-18 26 -34 20 -36 -7 -2 -10 -8 -7 -12 3 -5 -4 -7 -16 -5 -18 4 -20 1 -15 -18
4 -12 8 -43 9 -69 1 -34 -1 -44 -10 -37 -8 7 -13 4 -17 -8 -3 -10 -4 -2 -2 18
5 41 -9 72 -22 51 -6 -9 -12 -6 -20 13 -6 14 -16 25 -22 25 -5 0 -10 5 -10 11
0 5 5 7 10 4 6 -3 10 3 10 14 0 12 5 21 10 21 6 0 10 5 10 11 0 5 -5 7 -11 4
-28 -18 -43 59 -15 77 8 5 7 11 -2 20 -6 6 -12 23 -12 36 0 21 3 23 28 18 l27
-6 -22 16 c-31 22 -29 34 7 34 21 0 28 4 24 14 -4 11 4 16 28 18 61 7 68 5 68
-19z m-190 -136 c0 -7 -5 -4 -11 6 -5 9 -21 28 -33 42 -19 20 -25 22 -29 11
-4 -9 -2 -18 4 -22 6 -4 4 -13 -7 -25 -9 -10 -14 -25 -10 -35 3 -9 1 -23 -5
-30 -10 -12 -8 -13 6 -8 12 5 16 4 11 -4 -4 -7 1 -10 14 -9 21 1 26 12 10 22
-5 3 -15 15 -20 25 -9 16 -8 18 7 13 12 -5 15 -2 10 10 -3 9 -1 19 5 23 6 4 8
3 5 -3 -4 -6 0 -16 9 -23 12 -11 12 -15 2 -21 -8 -6 -9 -9 -2 -9 6 0 12 -11
12 -25 0 -14 -5 -22 -10 -19 -6 4 -7 -3 -3 -17 10 -32 25 -50 36 -43 5 3 9 0
9 -5 0 -12 -13 -14 -24 -4 -13 13 -35 11 -29 -3 3 -8 9 -12 13 -9 5 3 16 -5
24 -17 19 -26 20 -38 5 -38 -5 0 -7 6 -3 13 4 6 3 8 -2 4 -9 -8 -14 -57 -6
-57 3 0 11 8 18 18 11 14 15 15 26 3 11 -12 10 -13 -3 -8 -13 4 -16 1 -12 -14
5 -17 2 -19 -21 -13 -16 4 -26 2 -26 -5 0 -6 8 -8 18 -4 14 6 15 4 4 -9 -7 -8
-10 -23 -6 -32 3 -9 1 -16 -6 -16 -6 0 -8 -6 -4 -12 6 -10 4 -10 -7 0 -7 6
-21 12 -32 12 -10 0 -16 3 -13 8 2 4 -2 16 -10 27 -8 11 -14 14 -14 6 0 -11
-3 -11 -15 -1 -14 11 -13 14 7 25 27 14 27 14 33 -15 6 -29 10 -33 38 -36 12
-2 17 0 10 2 -7 3 -11 11 -9 17 1 7 1 9 -1 5 -3 -5 -10 -8 -16 -8 -8 0 -7 4 1
12 15 15 16 68 1 68 -5 0 -7 5 -4 10 4 6 11 8 16 5 5 -4 9 1 9 9 0 9 5 16 11
16 5 0 7 5 4 10 -4 6 -10 8 -15 5 -5 -3 -14 4 -21 16 -9 17 -8 23 2 30 12 7
12 9 1 9 -8 0 -16 -9 -19 -20 -6 -21 -33 -28 -33 -9 0 8 -5 8 -15 -1 -10 -9
-15 -9 -15 -1 0 11 13 15 40 11 12 -1 13 1 3 11 -7 7 -13 21 -13 31 0 12 -5
15 -16 11 -14 -5 -15 -3 -4 18 12 21 11 23 -2 11 -13 -10 -18 -9 -28 3 -18 21
6 51 27 34 11 -10 12 -8 7 5 -5 12 0 19 15 23 11 3 21 11 21 19 0 20 -17 26
-24 8 -3 -8 -10 -12 -16 -9 -6 4 -8 10 -5 15 3 4 0 10 -7 12 -23 8 3 26 32 23
22 -3 29 -1 24 8 -3 7 12 -7 35 -31 23 -24 41 -48 41 -55z"/>
<path d="M3087 2540 c-40 -7 -59 -20 -41 -27 6 -2 20 -11 30 -19 18 -14 17
-15 -13 -9 -21 4 -33 3 -33 -4 0 -6 7 -11 16 -11 8 0 13 -4 10 -9 -7 -11 48
-59 83 -72 13 -6 47 -9 75 -9 86 1 87 1 81 24 -3 12 3 5 14 -14 11 -19 21 -28
21 -20 1 10 4 8 9 -5 7 -16 10 -12 15 22 8 43 6 60 -5 56 -3 -1 -16 18 -28 43
-12 24 -27 42 -32 39 -11 -8 -1 -52 19 -83 8 -12 13 -25 10 -27 -2 -2 -19 18
-37 46 -53 81 -95 98 -194 79z"/>
<path d="M3565 2407 c-42 -17 -75 -36 -75 -45 0 -4 17 -8 37 -10 21 -1 42 -7
48 -13 9 -10 -20 -7 -62 7 -7 2 -13 -2 -13 -8 0 -7 -4 -7 -13 1 -8 6 -17 8
-21 4 -13 -13 -61 -8 -73 7 -10 12 -12 6 -13 -33 0 -26 -4 -55 -10 -65 -15
-27 -28 -143 -20 -171 8 -24 8 -24 9 9 1 19 8 46 15 59 l13 23 8 -23 c4 -13 7
-27 6 -31 0 -3 6 -12 14 -18 8 -7 15 -25 15 -41 0 -15 5 -31 10 -34 16 -10 11
27 -10 74 -22 47 -26 75 -9 51 9 -12 10 -12 5 3 -3 10 -6 21 -6 23 0 3 -4 2
-10 -1 -18 -11 -11 14 10 35 15 15 19 27 14 47 -6 22 -4 25 9 20 18 -7 33 8
17 18 -7 4 -7 13 1 26 10 20 11 20 24 2 10 -12 14 -14 15 -5 0 8 20 -4 45 -26
30 -26 63 -44 94 -52 82 -19 101 -19 101 0 0 10 -7 20 -15 24 -20 7 -19 18 5
43 19 22 19 22 -8 32 l-27 11 31 -3 c20 -2 31 1 31 10 0 17 -51 17 -66 0 -6
-8 -7 -18 -3 -22 4 -5 1 -5 -6 -1 -8 5 -10 20 -6 44 l6 37 -44 2 c-23 1 -56
-4 -73 -10z"/>
<path d="M350 2290 c0 -28 3 -30 35 -30 19 0 35 -1 35 -3 0 -2 -11 -36 -24
-75 l-25 -72 32 0 c31 0 33 2 65 95 19 52 31 99 27 105 -3 5 -37 10 -76 10
l-69 0 0 -30z"/>
<path d="M567 2313 c-4 -3 -7 -51 -7 -105 l0 -98 61 0 c54 0 64 3 90 29 52 53
34 147 -33 170 -34 12 -101 15 -111 4z"/>
<path d="M747 2313 c-12 -11 -8 -44 8 -59 15 -15 12 -83 -4 -94 -4 -3 -10 -15
-13 -27 -6 -21 -2 -22 73 -25 90 -3 99 -2 99 18 0 9 11 14 35 14 23 0 35 -5
35 -14 0 -10 20 -15 78 -18 113 -7 142 7 142 68 0 36 -12 48 -66 69 l-39 15
44 -2 c37 -2 45 1 52 19 6 17 3 23 -20 33 -45 18 -91 9 -114 -22 -29 -39 -12
-70 48 -93 25 -10 43 -20 40 -23 -10 -11 -40 -12 -67 -2 -21 7 -30 5 -36 -6
-7 -12 -18 7 -42 71 -45 114 -60 113 -110 -7 -35 -85 -36 -86 -53 -65 -20 25
-20 97 1 97 7 0 12 13 12 30 0 29 -1 30 -48 30 -27 0 -52 -3 -55 -7z"/>
<path d="M3727 1360 c-3 -11 -1 -18 4 -14 5 3 9 -1 9 -10 0 -9 -8 -13 -25 -11
-14 1 -25 -2 -25 -8 0 -5 9 -7 19 -4 16 4 21 -2 26 -24 4 -16 12 -29 18 -29 6
0 2 -7 -9 -16 -10 -8 -14 -13 -7 -10 13 7 32 -43 37 -98 2 -20 6 -39 10 -43 3
-3 6 -15 6 -25 0 -11 7 -26 15 -34 8 -9 18 -27 21 -42 4 -15 14 -35 23 -45 9
-11 16 -26 16 -35 0 -10 6 -16 13 -14 8 1 11 -8 8 -32 -3 -27 -1 -33 9 -29 9
3 16 -4 20 -20 4 -14 13 -28 21 -31 11 -4 11 -11 4 -32 -7 -18 -7 -38 1 -65
13 -42 23 -49 33 -23 5 14 9 13 26 -8 10 -14 22 -38 25 -54 6 -26 5 -27 -6 -9
-7 11 -15 22 -19 25 -4 3 -10 12 -13 20 -3 8 -4 0 -3 -18 2 -18 5 -31 7 -30 2
1 14 -7 27 -17 12 -11 30 -20 40 -20 9 0 18 -8 20 -17 2 -10 -2 -18 -8 -18 -6
0 -8 5 -5 10 3 6 -1 10 -9 10 -21 0 -20 -14 0 -31 27 -22 47 -20 41 4 -15 58
-50 147 -59 147 -5 0 -6 -10 -3 -22 5 -18 4 -20 -4 -8 -6 8 -9 27 -6 41 8 34
-10 79 -31 79 -13 0 -14 -3 -5 -13 6 -8 7 -18 3 -22 -4 -5 -1 -5 6 -1 6 4 12
3 12 -3 0 -5 3 -16 6 -25 3 -9 1 -16 -5 -16 -6 0 -11 7 -11 15 0 10 -7 15 -17
13 -14 -2 -18 4 -19 27 0 17 -4 42 -8 57 -4 15 -4 34 1 43 8 13 12 8 22 -25 7
-24 16 -38 23 -34 6 4 7 9 0 13 -5 3 -13 21 -17 39 -3 18 -15 37 -25 42 -12 7
-16 17 -13 31 4 15 3 20 -5 15 -7 -4 -13 -15 -13 -24 -1 -18 -12 27 -28 120
-12 70 -57 172 -72 162 -8 -4 -8 -1 0 14 14 26 14 42 0 22 -8 -12 -9 -12 -7 5
1 11 -1 32 -5 48 -4 15 -3 36 3 47 7 13 7 21 -2 26 -6 4 -9 3 -5 -2 3 -5 -2
-18 -10 -29 -15 -20 -15 -20 -8 3 7 26 2 28 -18 7 -13 -13 -17 -13 -28 1 -11
13 -10 15 6 12 12 -2 21 4 23 16 2 11 0 16 -6 12 -6 -3 -17 3 -25 14 l-14 21
-6 -21z"/>
<path d="M1110 950 c-24 -24 -25 -48 -4 -78 20 -29 68 -30 87 -1 l15 20 25
-23 c19 -18 23 -28 16 -41 -8 -14 -6 -17 14 -17 30 0 40 10 27 25 -8 9 -6 14
5 19 27 10 18 35 -12 33 -22 -2 -29 3 -31 21 -3 22 4 26 41 23 21 -3 23 25 1
33 -29 11 -45 6 -69 -20 -19 -20 -25 -23 -25 -11 0 17 -29 37 -54 37 -9 0 -25
-9 -36 -20z"/>
<path d="M4676 406 c5 -43 4 -57 -5 -52 -6 4 -11 1 -11 -8 0 -8 5 -16 12 -18
6 -2 8 -10 4 -16 -5 -9 -13 -6 -27 10 -20 22 -20 23 -14 2 4 -16 0 -23 -17
-28 -19 -5 -20 -8 -8 -16 9 -5 19 -5 24 0 4 4 14 6 21 3 8 -2 23 0 34 7 13 6
21 7 21 1 0 -5 -10 -13 -22 -16 -13 -4 -37 -13 -54 -21 -50 -22 -78 -22 -82 1
-2 15 -1 17 6 6 6 -8 18 -11 30 -7 l21 7 -21 24 c-12 13 -25 22 -29 19 -5 -3
-11 7 -15 21 -3 14 -10 25 -15 25 -4 0 -1 -17 7 -37 13 -34 13 -36 -1 -19 -14
19 -21 11 -16 -17 1 -5 -3 -6 -8 -2 -6 3 -8 12 -4 20 3 8 0 15 -6 15 -6 0 -11
9 -11 21 0 11 -4 18 -9 15 -4 -3 -6 -18 -4 -33 l4 -28 -16 28 c-9 15 -13 31
-11 36 3 5 0 26 -7 47 -12 33 -14 35 -19 16 -4 -13 -12 -20 -20 -17 -9 4 -14
-2 -15 -17 -2 -18 0 -20 7 -8 9 13 10 13 11 0 1 -8 1 -19 0 -23 -1 -4 6 -18
14 -30 16 -22 16 -22 10 8 l-5 30 11 -28 c8 -21 8 -31 -3 -44 -9 -12 -9 -15 0
-9 7 4 12 1 12 -9 0 -25 -34 -14 -38 13 -4 23 -22 31 -22 10 1 -18 25 -48 39
-48 8 0 10 -8 6 -20 -4 -11 -2 -20 4 -20 6 0 10 4 8 9 -1 5 0 9 3 8 3 0 15 5
27 11 14 8 24 9 28 2 4 -6 11 -7 17 -4 7 4 8 2 4 -4 -8 -13 -93 -53 -118 -55
-9 -1 -15 -3 -12 -6 7 -7 -66 -41 -88 -41 -10 0 -18 -5 -18 -10 0 -6 -6 -10
-12 -9 -7 1 -24 -1 -38 -5 -27 -7 -100 17 -100 33 0 5 -13 16 -30 25 -16 8
-30 11 -30 7 0 -11 38 -40 44 -34 3 4 6 2 6 -3 0 -16 75 -54 105 -54 15 0 106
30 203 66 98 37 204 77 237 90 251 94 320 124 323 138 4 21 -41 22 -58 1 -7
-8 -16 -12 -22 -9 -5 3 -14 1 -21 -4 -7 -5 -39 -17 -72 -27 -33 -10 -65 -22
-72 -28 -16 -12 -33 0 -32 21 1 15 2 15 6 0 9 -35 24 -18 17 20 -6 34 -43 96
-45 76 0 -5 -7 5 -15 21 -14 29 -14 27 -8 -29z"/>
</g>
</svg>
